<svg width="175" height="37" fill="none" xmlns="http://www.w3.org/2000/svg"><g clip-path="url(#clip0)"><path fill-rule="evenodd" clip-rule="evenodd" d="M73.689 9.514a2.7 2.7 0 011.863-.75 1.76 1.76 0 011.543.75 3.34 3.34 0 01.512 1.927v16.122h-2.593V11.56c0-.474-.143-.706-.419-.706a.589.589 0 00-.44.19c-.162.18-.295.384-.395.605l-6.487 13.444a6.285 6.285 0 01-1.323 1.9 2.51 2.51 0 01-1.775.689 1.717 1.717 0 01-.876-.186 1.74 1.74 0 01-.667-.603 3.47 3.47 0 01-.519-1.926V8.888h2.607v15.995c0 .474.136.713.412.713a.588.588 0 00.44-.19 2.38 2.38 0 00.395-.606l6.487-13.45a6.14 6.14 0 011.244-1.838l-.009.002zm93.281 2.896l-4.489 5.97 4.088 5.57h2.02l-4.651-6.354 3.881-5.184h-.844l-.005-.002zm-6.431 0v11.537h1.607V12.42h-1.607v-.009zm-4.113 1.862v9.675h1.608v-9.621a3.175 3.175 0 00-.307-1.47 1.08 1.08 0 00-1.043-.588 1.327 1.327 0 00-1.025.41 3.256 3.256 0 00-.538.977l-2.756 7.25-2.582-7.092a2.733 2.733 0 00-.661-1.087 1.58 1.58 0 00-1.125-.46 1.169 1.169 0 00-1.118.694c-.192.427-.28.895-.255 1.364v9.63h.787v-9.47c0-.445.132-.668.388-.668.2 0 .347.17.441.512l3.682 10.091 3.799-10.136c.106-.316.249-.467.441-.467s.282.151.282.467l-.018-.01zm-34.376-4.17v16.412l2.867.044c2.312 0 4.11-.73 5.393-2.192 1.283-1.461 1.922-3.501 1.918-6.12a9.631 9.631 0 00-.699-3.655 8.263 8.263 0 00-1.702-2.744 5.924 5.924 0 00-2.425-1.466 10.249 10.249 0 00-3.125-.461h-.78c-.486.032-.971.09-1.451.171l.004.011zm-81.68 8.145c0-2.703-.622-4.875-1.864-6.516-1.124-1.478-2.46-2.217-4.006-2.217-2.093 0-3.679.99-4.756 2.967-.851 1.584-1.281 3.536-1.281 5.848 0 3.17.731 5.508 2.194 7.015 1.043 1.06 2.244 1.584 3.594 1.584 2.093 0 3.69-.987 4.793-2.96.882-1.591 1.323-3.498 1.323-5.721h.002zm40.972-6.27c0-.94.137-1.679.419-2.209.158-.35.415-.644.739-.845.324-.201.7-.3 1.08-.284a2.566 2.566 0 011.819.75 4.669 4.669 0 011.076 1.756l4.176 11.486 4.463-11.733c.191-.58.486-1.119.868-1.591a2.163 2.163 0 011.65-.668c.8 0 1.369.323 1.7.96.348.743.517 1.56.493 2.381v15.594h-2.608v-15.66c0-.506-.15-.758-.456-.758-.307 0-.538.252-.7.757l-6.155 16.412-5.953-16.336c-.137-.555-.369-.833-.7-.833-.412 0-.623.365-.623 1.087v15.333h-1.288V11.978zm22.71 12.327V11.847c0-.923.256-1.642.781-2.173.524-.53 1.243-.795 2.149-.795h8.681v1.212h-7.455c-1.049 0-1.574.512-1.574 1.546v5.645h7.444v1.212h-7.446v6.182c0 1.114.525 1.673 1.574 1.673h7.437v1.212h-8.841c-.968 0-1.669-.29-2.113-.86-.443-.57-.661-1.37-.661-2.4l.024.003zm15.419 11.733V8.888h5.494c2.781 0 5.096.766 6.943 2.3 2.151 1.781 3.226 4.3 3.226 7.558 0 2.784-.971 4.99-2.913 6.618-1.941 1.628-4.36 2.444-7.256 2.45h-2.915v8.23h-2.599l.02-.007zm37.588-1.225c-3.224 0-6.377-.966-9.058-2.775a16.436 16.436 0 01-6.005-7.392 16.631 16.631 0 01-.929-9.518 16.526 16.526 0 014.462-8.434 16.25 16.25 0 018.348-4.508 16.148 16.148 0 019.42.938 16.338 16.338 0 017.316 6.067 16.598 16.598 0 012.747 9.152 16.56 16.56 0 01-4.775 11.645 16.22 16.22 0 01-11.526 4.825zM28.176 10.77c1.569-1.56 3.58-2.341 6.037-2.344 2.256 0 4.267.835 6.03 2.506 2.013 1.895 3.019 4.318 3.019 7.269 0 2.673-.702 4.915-2.106 6.725-1.578 2.035-3.743 3.052-6.493 3.052a8.306 8.306 0 01-3.565-.732 8.385 8.385 0 01-2.922-2.19 10.032 10.032 0 01-2.606-6.906c0-3.202.869-5.665 2.606-7.39v.01zm-5.87-1.883V27.56h-2.605V10.102h-9.587v17.46H7.508V8.889h14.799zm29.595-.416a1.892 1.892 0 011.488.706c.38.455.664.984.833 1.555l5.788 16.834h-2.897l-5.457-15.594c-.137-.385-.294-.581-.457-.581-.306 0-.511.196-.62.581l-4.63 15.594h-1.362l5.164-17.057a3.91 3.91 0 01.807-1.421 1.765 1.765 0 011.343-.626v.009zM157.025.452H17.976C8.09.452.002 8.485.002 18.298v.31c0 9.812 8.088 17.845 17.975 17.845h139.049c9.887 0 17.974-8.033 17.974-17.846v-.31C175 8.486 166.913.453 157.026.453z" fill="#fff"/></g><defs><clipPath id="clip0"><path fill="#fff" transform="translate(0 .447)" d="M0 0h175v36H0z"/></clipPath></defs></svg>